<?xml version="1.0" encoding="UTF-8" ?>
<!DOCTYPE svg PUBLIC "-//W3C//DTD SVG 1.1//EN" "http://www.w3.org/Graphics/SVG/1.1/DTD/svg11.dtd">
<svg width="344pt" height="105pt" viewBox="0 0 344 105" version="1.1" xmlns="http://www.w3.org/2000/svg">
<path fill="#0d47a1" d=" M 0.00 0.00 L 342.50 0.00 C 342.46 35.00 342.59 70.00 342.44 105.00 L 0.00 105.00 L 0.00 0.00 Z" />
<path fill="#ffffff" d=" M 342.50 0.00 L 344.00 0.00 L 344.00 105.00 L 342.44 105.00 C 342.59 70.00 342.46 35.00 342.50 0.00 Z" />
<path fill="#ffffff" d=" M 21.38 6.42 C 25.75 4.59 29.87 8.93 30.34 13.04 C 31.52 17.94 28.06 24.94 22.28 23.94 C 14.89 21.66 14.51 9.58 21.38 6.42 Z" />
<path fill="#ffffff" d=" M 53.29 6.29 C 58.37 4.68 62.28 10.45 62.03 15.00 C 62.32 19.60 58.41 25.34 53.27 23.81 C 46.26 20.99 46.19 9.03 53.29 6.29 Z" />
<path fill="#ffffff" d=" M 28.95 25.98 C 29.65 20.76 33.50 15.10 39.25 15.04 C 45.08 15.08 48.93 20.86 49.58 26.14 C 50.44 30.92 48.62 35.62 45.89 39.46 C 46.05 39.83 46.39 40.58 46.56 40.95 C 49.76 39.04 53.59 40.54 55.28 43.69 C 58.63 49.92 58.92 57.40 58.08 64.29 C 59.17 67.18 61.31 69.84 61.43 72.98 C 59.45 74.45 57.16 75.42 54.97 76.53 C 55.81 78.61 57.35 80.56 57.37 82.86 C 56.04 84.48 53.88 85.11 52.07 86.09 C 42.00 90.68 32.30 96.11 22.09 100.38 C 20.05 99.13 19.42 96.61 18.30 94.64 C 13.24 83.51 7.18 72.82 2.57 61.49 C 4.75 60.25 6.99 59.12 9.23 58.00 C 8.76 56.62 8.24 55.26 7.91 53.83 C 12.25 50.10 18.05 48.65 22.94 45.78 L 23.02 46.96 C 23.11 45.65 23.21 44.34 23.29 43.03 C 25.47 40.87 28.22 39.52 31.38 39.90 C 29.07 41.85 26.35 43.20 23.50 44.16 C 24.13 44.59 24.76 45.02 25.39 45.45 L 24.93 44.83 C 30.52 41.75 36.83 39.84 41.86 35.83 C 38.77 36.84 35.92 38.40 32.99 39.78 C 29.91 35.92 28.02 30.96 28.95 25.98 Z" />
<path fill="#ffffff" d=" M 72.89 19.00 C 79.61 19.08 86.34 18.84 93.06 19.09 C 100.29 19.41 106.55 25.86 106.73 33.08 C 106.83 43.70 106.81 54.33 106.74 64.95 C 106.65 72.24 100.33 78.77 93.05 79.10 C 86.34 79.34 79.61 79.11 72.89 79.19 C 72.89 59.12 72.89 39.06 72.89 19.00 Z" />
<path fill="#ffffff" d=" M 196.89 19.00 C 198.61 19.00 200.32 19.00 202.05 19.00 C 202.04 39.14 202.05 59.29 202.04 79.44 C 200.32 79.44 198.61 79.44 196.89 79.44 C 196.89 59.29 196.89 39.15 196.89 19.00 Z" />
<path fill="#ffffff" d=" M 13.31 38.74 C 12.60 33.73 12.79 28.17 15.59 23.77 C 19.00 25.87 22.79 27.84 26.91 26.62 C 26.90 30.30 27.55 33.95 28.98 37.34 C 26.16 38.23 23.64 39.80 21.72 42.06 C 18.71 42.05 14.34 42.43 13.31 38.74 Z" />
<path fill="#ffffff" d=" M 51.61 26.74 C 55.83 27.82 59.57 25.72 63.12 23.75 C 65.51 28.34 66.02 33.78 65.16 38.83 C 64.11 42.32 59.93 42.09 57.02 42.40 C 55.05 40.06 52.58 38.22 49.63 37.31 C 50.91 33.93 51.65 30.36 51.61 26.74 Z" />
<path fill="#0d47a1" d=" M 78.31 24.18 C 83.20 24.25 88.11 23.95 93.00 24.32 C 97.71 24.83 101.52 29.27 101.32 34.02 C 101.40 44.01 101.38 54.02 101.33 64.01 C 101.60 68.76 97.88 73.31 93.13 73.83 C 88.20 74.23 83.25 73.92 78.31 73.99 C 78.31 57.39 78.31 40.78 78.31 24.18 Z" />
<path fill="#ffffff" d=" M 277.70 25.62 C 279.42 25.34 281.14 25.06 282.86 24.78 C 282.86 28.52 282.86 32.26 282.86 36.00 C 286.50 36.00 290.14 36.00 293.78 36.00 C 293.78 37.64 293.78 39.28 293.78 40.92 C 290.14 40.93 286.50 40.92 282.86 40.92 C 282.89 49.62 282.80 58.32 282.87 67.01 C 282.69 69.65 283.92 72.46 286.48 73.50 C 288.82 74.30 291.37 74.00 293.81 74.15 C 293.79 75.79 293.78 77.43 293.77 79.07 C 290.30 78.93 286.55 79.34 283.44 77.49 C 279.73 75.42 277.54 71.21 277.72 67.00 C 277.65 58.31 277.73 49.61 277.71 40.92 C 275.13 40.92 272.55 40.93 269.97 40.93 C 269.97 39.28 269.97 37.64 269.97 36.00 C 272.55 36.00 275.13 36.00 277.71 36.00 C 277.70 32.54 277.70 29.08 277.70 25.62 Z" />
<path fill="#ffffff" d=" M 127.39 35.56 C 130.47 34.90 133.71 34.91 136.80 35.48 C 142.15 36.60 146.36 41.57 146.55 47.04 C 146.75 53.70 146.64 60.38 146.61 67.05 C 146.66 71.33 144.54 75.60 140.90 77.91 C 137.43 80.27 133.00 80.22 128.99 79.86 C 123.07 79.26 118.17 73.94 118.01 68.00 C 117.83 61.31 117.91 54.61 117.96 47.92 C 117.84 42.28 121.87 36.86 127.39 35.56 Z" />
<path fill="#ffffff" d=" M 160.76 38.72 C 167.24 32.84 179.85 33.67 184.14 41.86 C 185.39 44.19 185.52 46.88 185.85 49.45 C 184.13 49.76 182.41 50.07 180.69 50.37 C 180.38 47.68 180.58 44.55 178.52 42.45 C 175.96 39.53 171.68 39.77 168.17 40.17 C 164.51 40.72 161.90 44.31 162.10 47.94 C 162.07 54.64 161.97 61.34 162.15 68.03 C 162.22 71.62 165.28 74.86 168.89 75.04 C 172.22 75.31 176.24 75.42 178.59 72.58 C 180.60 70.49 180.37 67.42 180.68 64.75 C 182.40 65.04 184.13 65.34 185.85 65.65 C 185.81 71.09 183.31 76.87 177.96 78.95 C 171.74 81.11 163.35 80.58 159.30 74.68 C 155.80 69.83 157.20 63.56 156.92 57.99 C 157.21 51.51 155.43 43.70 160.76 38.72 Z" />
<path fill="#ffffff" d=" M 235.58 42.56 C 240.25 31.86 258.97 32.46 262.46 43.81 C 263.67 48.43 262.98 53.28 263.13 58.00 C 255.28 58.00 247.43 58.00 239.59 58.00 C 239.78 62.24 238.95 66.67 240.29 70.78 C 242.49 75.75 249.00 75.82 253.48 74.49 C 257.44 72.99 258.17 68.47 258.22 64.76 C 259.92 65.05 261.63 65.34 263.35 65.63 C 263.38 71.27 260.57 77.26 254.93 79.15 C 248.88 80.97 241.00 80.49 236.99 74.95 C 233.26 70.10 234.69 63.66 234.42 58.01 C 234.70 52.88 233.59 47.45 235.58 42.56 Z" />
<path fill="#ffffff" d=" M 311.22 36.22 C 317.18 34.13 325.04 34.43 329.33 39.67 C 331.38 41.91 331.90 44.98 332.54 47.83 C 330.85 48.17 329.18 48.51 327.50 48.85 C 327.03 45.57 325.97 41.73 322.44 40.56 C 319.15 39.65 315.30 39.55 312.21 41.17 C 308.27 43.37 308.18 49.71 311.98 52.10 C 317.27 55.60 324.31 55.51 329.22 59.73 C 333.96 63.88 333.88 72.10 329.24 76.29 C 324.83 80.50 318.06 80.63 312.44 79.39 C 306.45 77.76 302.83 71.67 302.94 65.66 C 304.66 65.35 306.38 65.05 308.11 64.75 C 308.03 68.63 309.20 73.22 313.35 74.55 C 317.21 75.47 321.87 75.74 325.24 73.27 C 328.51 70.86 328.33 65.38 325.08 63.03 C 319.54 58.91 311.46 59.65 306.60 54.41 C 301.57 48.82 304.17 38.80 311.22 36.22 Z" />
<path fill="#ffffff" d=" M 220.61 36.29 C 222.85 36.28 225.09 36.28 227.34 36.28 C 221.35 43.48 215.35 50.66 209.36 57.86 C 215.34 65.05 221.34 72.24 227.33 79.43 C 225.09 79.43 222.86 79.44 220.64 79.44 C 214.77 72.26 208.92 65.05 203.06 57.86 C 208.91 50.67 214.77 43.49 220.61 36.29 Z" />
<path fill="#0d47a1" d=" M 129.22 40.16 C 133.60 39.34 139.56 40.08 141.05 45.07 C 142.00 50.64 141.25 56.36 141.50 61.99 C 141.49 66.10 142.18 71.42 138.06 73.91 C 133.06 76.57 124.15 75.61 123.24 68.81 C 122.90 61.56 123.05 54.27 123.16 47.01 C 123.26 43.67 125.91 40.66 129.22 40.16 Z" />
<path fill="#0d47a1" d=" M 240.68 43.61 C 243.39 39.15 249.78 39.24 254.09 40.93 C 258.90 43.44 257.97 49.45 258.03 53.95 C 251.87 53.96 245.71 53.96 239.55 53.95 C 239.75 50.52 238.95 46.76 240.68 43.61 Z" />
<path fill="#0d47a1" d=" M 12.79 55.35 C 22.52 50.45 32.38 45.82 42.12 40.95 C 46.93 51.05 51.90 61.07 56.80 71.13 C 46.96 75.79 37.23 80.67 27.43 85.40 C 22.54 75.38 17.62 65.39 12.79 55.35 Z" />
<path fill="#ffffff" d=" M 31.23 53.09 C 34.34 51.65 37.38 49.47 40.99 49.83 C 41.27 53.88 37.02 54.64 34.23 56.17 C 30.46 57.92 26.87 60.07 22.91 61.37 C 21.31 61.11 21.07 59.73 21.20 58.36 C 24.27 56.13 27.87 54.81 31.23 53.09 Z" />
<path fill="#ffffff" d=" M 40.39 58.21 C 42.00 57.32 43.81 56.62 44.64 58.87 C 45.00 60.87 42.65 61.47 41.34 62.27 C 36.55 64.44 32.03 67.20 27.06 68.93 C 25.35 69.78 23.96 66.37 25.60 65.62 C 30.35 62.81 35.46 60.67 40.39 58.21 Z" />
<path fill="#0d47a1" d=" M 7.63 63.47 C 8.85 62.84 10.08 62.21 11.31 61.59 C 15.14 69.75 19.25 77.78 23.08 85.94 C 23.89 87.47 24.55 89.24 26.04 90.25 C 34.70 86.84 42.85 82.22 51.26 78.25 C 51.62 78.97 52.33 80.42 52.69 81.14 C 42.98 86.06 33.08 90.61 23.40 95.58 C 18.07 84.92 12.96 74.14 7.63 63.47 Z" />
<path fill="#ffffff" d=" M 29.19 73.50 C 34.83 70.08 41.00 67.60 46.93 64.71 C 47.43 65.38 48.43 66.70 48.93 67.37 C 43.95 71.26 37.86 73.37 32.26 76.21 C 30.50 77.81 27.20 75.42 29.19 73.50 Z" />
</svg>
